<?xml version="1.0" standalone="no"?>
<!DOCTYPE svg PUBLIC "-//W3C//DTD SVG 20010904//EN"
 "http://www.w3.org/TR/2001/REC-SVG-20010904/DTD/svg10.dtd">
<svg version="1.0" xmlns="http://www.w3.org/2000/svg"
 width="1080.000000pt" height="1080.000000pt" viewBox="0 0 1080.000000 1080.000000"
 preserveAspectRatio="xMidYMid meet">
<metadata>
Created by potrace 1.14, written by Peter Selinger 2001-2017
</metadata>
<g transform="translate(0.000000,1080.000000) scale(0.100000,-0.100000)"
fill="#000000" stroke="none">
<path d="M0 5400 l0 -5400 5400 0 5400 0 0 5400 0 5400 -5400 0 -5400 0 0
-5400z m6270 4395 c191 -23 314 -50 529 -117 591 -184 1105 -585 1389 -1083
86 -152 174 -382 212 -560 27 -125 38 -416 21 -561 -32 -275 -144 -556 -320
-809 -70 -101 -231 -270 -361 -380 -45 -39 -233 -168 -306 -211 -16 -10 -14
-15 27 -65 24 -31 67 -88 94 -128 28 -40 73 -103 100 -139 28 -37 57 -77 65
-88 8 -12 52 -75 98 -140 46 -66 117 -173 159 -239 41 -66 90 -142 107 -170
39 -61 56 -99 56 -125 0 -32 -26 -23 -41 13 -7 17 -20 43 -30 57 -9 14 -24 38
-33 53 -10 16 -20 27 -22 24 -3 -3 5 -20 18 -39 35 -51 61 -115 55 -132 -10
-25 -23 -19 -41 18 -14 30 -46 67 -46 52 0 -3 9 -20 20 -38 24 -39 26 -68 5
-68 -8 0 -22 -11 -30 -24 -12 -17 -22 -22 -38 -18 -33 8 -45 21 -40 41 7 28
-162 299 -340 545 -62 85 -134 188 -162 228 -120 174 -196 269 -212 266 -30
-6 -24 -25 30 -94 30 -38 71 -94 93 -125 21 -31 77 -110 124 -174 118 -163
134 -186 210 -300 109 -164 189 -290 225 -357 18 -35 31 -48 48 -48 12 -1 33
-7 47 -16 l25 -15 -35 5 c-19 2 -47 8 -62 11 -22 6 -28 4 -28 -8 0 -9 8 -18
18 -20 58 -16 79 -21 94 -21 10 -1 17 -5 15 -11 -3 -15 -80 -9 -114 9 -19 9
-41 36 -58 68 -25 47 -106 180 -192 313 -48 75 -111 166 -171 248 -30 39 -97
134 -150 210 -140 199 -159 226 -186 258 l-24 29 -106 -35 c-121 -40 -295 -85
-325 -85 -12 0 -21 -4 -21 -9 0 -9 171 -260 256 -374 51 -68 271 -382 356
-507 77 -113 104 -139 143 -140 33 -1 48 -15 40 -39 -3 -11 -13 -21 -21 -21
-23 0 -17 -15 31 -73 25 -31 45 -60 45 -66 0 -18 -22 -13 -47 11 -13 12 -23
16 -23 10 0 -6 5 -14 10 -17 12 -8 13 -45 1 -45 -4 0 -21 10 -37 22 l-28 23
22 -31 c19 -25 21 -35 13 -57 -13 -33 -32 -37 -103 -19 -42 11 -48 4 -18 -23
24 -22 25 -32 4 -53 -15 -15 -20 -11 -68 42 l-51 58 -165 29 c-91 15 -208 35
-260 44 -52 9 -115 21 -140 27 -25 5 -72 14 -105 19 -33 4 -123 20 -200 34
-248 47 -349 65 -395 71 -43 7 -44 6 -29 -12 16 -19 241 -295 382 -467 40 -49
88 -107 108 -130 20 -23 58 -69 85 -102 27 -34 88 -108 136 -165 148 -178 491
-594 528 -640 19 -24 53 -65 75 -91 22 -25 85 -102 140 -169 55 -68 116 -142
135 -165 19 -23 96 -115 170 -205 74 -90 139 -168 145 -174 5 -6 29 -36 52
-66 23 -30 93 -117 155 -192 62 -75 154 -187 203 -249 50 -61 106 -131 125
-154 19 -24 80 -99 134 -169 83 -106 106 -128 143 -142 58 -22 71 -46 38 -68
-14 -9 -25 -23 -25 -30 0 -8 -10 -16 -21 -19 -15 -4 -20 -11 -15 -22 5 -15 1
-23 -31 -60 -7 -7 -13 -18 -13 -24 0 -22 -41 -10 -91 25 -52 36 -76 39 -45 5
9 -10 16 -25 14 -32 -2 -10 8 -14 34 -14 52 -1 64 -16 45 -52 -9 -15 -18 -36
-21 -45 -8 -26 -17 -23 -84 29 -64 51 -345 234 -682 445 -30 19 -116 74 -190
122 -74 48 -182 117 -240 153 -58 36 -124 77 -147 92 -23 14 -94 60 -159 101
-140 90 -214 137 -330 210 -48 30 -122 78 -165 105 -43 28 -121 77 -174 110
-52 33 -150 95 -218 138 -67 44 -147 95 -177 114 -30 19 -102 65 -160 102
-152 99 -283 182 -340 216 -95 58 -285 179 -310 197 -36 28 -238 158 -244 158
-3 0 -47 28 -98 62 -52 35 -116 77 -143 94 -28 17 -131 83 -230 146 -99 63
-236 150 -305 193 -69 43 -143 90 -165 105 -22 15 -80 52 -130 83 -49 31 -110
70 -135 86 -25 17 -103 68 -175 112 -71 44 -170 107 -218 140 -49 32 -90 59
-92 59 -1 0 -45 27 -96 60 -52 33 -148 94 -214 136 -66 42 -178 114 -250 160
-71 46 -152 97 -180 114 -27 17 -140 89 -250 159 -110 71 -220 141 -245 157
-25 15 -81 51 -125 79 -44 29 -116 76 -160 104 -44 28 -99 64 -123 81 -33 24
-64 35 -130 47 -92 16 -136 32 -133 48 1 6 19 10 41 9 21 0 37 3 34 8 -3 4
-13 8 -23 8 -28 0 -46 26 -31 45 6 8 9 18 6 24 -3 5 -2 21 4 36 8 22 15 26 34
21 37 -9 40 6 4 22 -19 9 -27 16 -18 18 8 1 32 5 52 9 47 7 42 28 -10 41 -31
8 -37 14 -39 38 l-2 29 69 -7 c66 -6 70 -5 70 14 0 19 2 20 36 5 19 -8 49 -24
65 -36 16 -11 53 -24 82 -29 29 -4 115 -20 192 -35 77 -14 169 -31 205 -36 36
-5 81 -14 100 -19 19 -5 114 -23 210 -40 96 -16 193 -34 215 -39 41 -10 191
-39 345 -65 47 -9 123 -22 170 -31 47 -9 171 -31 275 -50 105 -19 240 -44 300
-55 134 -26 557 -105 640 -120 33 -6 119 -22 190 -35 72 -14 193 -36 270 -50
77 -15 173 -33 214 -41 41 -8 76 -12 79 -10 4 4 -127 167 -282 351 -83 99
-436 524 -466 561 -14 17 -83 101 -155 186 -71 85 -155 185 -185 223 -30 37
-104 126 -164 199 -59 72 -133 162 -165 200 -31 38 -121 148 -201 245 -80 97
-163 199 -185 226 -22 28 -74 91 -115 140 -41 50 -102 123 -135 164 -33 40
-88 108 -123 150 -35 42 -94 114 -130 160 -37 46 -130 162 -207 257 -77 94
-160 198 -185 229 -24 31 -66 75 -93 97 -55 46 -131 154 -123 174 3 8 14 14
25 14 11 0 21 8 23 17 2 14 9 10 35 -17 18 -19 35 -31 38 -28 4 3 -2 15 -12
25 -30 30 -33 48 -12 67 11 9 24 16 29 16 6 0 10 5 10 10 0 18 21 10 52 -20
40 -40 46 -38 14 4 -24 32 -27 66 -5 66 5 0 9 7 9 15 0 8 9 15 20 15 22 0 150
-144 150 -169 0 -15 119 -163 323 -401 49 -58 106 -125 127 -150 99 -117 359
-427 390 -465 19 -24 82 -100 140 -170 58 -70 119 -144 135 -165 17 -21 71
-87 120 -145 91 -109 360 -433 483 -582 57 -70 70 -81 91 -76 19 5 32 -3 65
-38 49 -53 142 -134 211 -186 28 -20 52 -41 53 -45 2 -4 8 -8 13 -8 5 0 41
-23 81 -51 39 -28 85 -58 102 -66 17 -7 51 -25 76 -39 82 -48 276 -131 415
-179 62 -22 305 -83 355 -90 25 -3 61 -8 80 -10 211 -30 430 -43 430 -27 0 5
-66 12 -147 15 -183 8 -405 44 -596 96 -379 104 -765 317 -1029 570 -53 50
-77 86 -65 97 2 3 45 -35 94 -84 196 -194 451 -355 753 -477 221 -89 517 -157
735 -170 61 -3 130 -8 155 -11 53 -5 80 7 62 29 -11 13 -141 25 -327 32 -22 1
-47 4 -55 8 -8 3 -73 18 -145 32 -228 47 -433 121 -650 234 -71 37 -150 82
-175 100 -25 17 -56 39 -70 49 -75 50 -188 141 -251 202 -70 67 -71 69 -64
107 4 21 9 40 11 43 10 9 39 -18 59 -53 21 -35 118 -127 199 -187 149 -111
207 -147 336 -214 143 -74 287 -134 385 -163 110 -31 201 -55 249 -64 178 -35
442 -60 435 -41 -5 13 -149 223 -309 450 -69 97 -151 213 -181 257 -30 44
-102 144 -160 222 -183 249 -386 534 -469 660 -65 99 -79 125 -69 136 17 18
42 -11 151 -173 46 -69 113 -164 148 -211 36 -47 90 -121 120 -164 30 -43 109
-151 175 -241 66 -89 149 -204 185 -254 36 -51 82 -115 102 -143 62 -86 92
-127 160 -227 219 -320 219 -320 252 -320 27 0 26 2 -36 91 -35 49 -106 153
-159 229 -52 77 -118 170 -145 207 -93 125 -137 193 -131 199 3 3 17 -11 31
-33 14 -21 55 -78 90 -128 36 -49 106 -151 157 -225 80 -116 116 -167 228
-320 10 -14 22 -22 26 -18 4 4 -31 60 -77 125 -46 65 -119 170 -162 233 -43
63 -98 142 -122 175 -24 33 -83 116 -131 185 -48 69 -112 159 -143 200 -32 41
-85 113 -118 160 -69 95 -76 104 -207 283 -52 71 -131 184 -176 250 -45 67
-92 133 -105 148 -13 14 -24 30 -24 36 0 11 38 29 44 21 2 -1 52 -73 111 -158
60 -85 129 -182 154 -215 25 -32 53 -69 61 -81 33 -48 231 -322 264 -364 20
-25 53 -70 75 -100 21 -31 110 -156 197 -278 88 -122 222 -312 299 -422 77
-110 143 -200 148 -200 16 0 4 21 -71 126 -43 60 -118 168 -167 239 -48 72
-108 157 -133 190 -24 33 -96 134 -161 225 -64 91 -155 217 -202 280 -47 63
-105 144 -129 180 -39 56 -90 127 -188 255 -12 17 -51 73 -86 125 -35 52 -84
122 -110 154 -25 33 -43 62 -40 65 8 8 57 -50 111 -134 26 -38 90 -128 143
-200 87 -117 231 -315 270 -371 8 -12 60 -82 116 -155 55 -74 119 -161 142
-194 23 -33 59 -83 80 -111 20 -28 72 -100 114 -160 42 -60 90 -127 107 -149
59 -78 211 -296 211 -304 0 -11 49 -55 55 -49 3 3 -49 83 -117 179 -67 96
-136 194 -153 219 -17 25 -64 92 -105 148 -115 159 -188 263 -217 307 -15 22
-79 110 -143 195 -157 208 -336 455 -440 604 -47 68 -97 137 -112 155 -28 33
-36 61 -18 61 5 0 42 -46 81 -102 76 -108 226 -313 294 -401 22 -29 60 -81 85
-117 24 -36 83 -117 130 -180 157 -209 368 -501 491 -680 64 -92 174 -249 241
-340 17 -25 33 -46 33 -47 7 -15 446 85 467 105 4 4 -12 32 -35 62 -24 30 -81
111 -127 180 -45 69 -93 137 -104 151 -28 36 -109 152 -150 214 -92 141 -415
618 -456 675 -48 65 -120 185 -120 200 0 4 9 10 20 13 17 4 34 -14 96 -106 42
-62 145 -213 230 -337 85 -124 193 -281 239 -350 47 -69 112 -163 145 -210 86
-121 95 -133 198 -281 122 -176 135 -191 155 -183 23 8 22 11 -23 74 -22 30
-66 93 -98 140 -33 47 -79 113 -103 147 -98 137 -213 302 -252 361 -138 206
-378 557 -422 617 -57 77 -101 152 -94 159 3 3 33 -36 67 -87 60 -88 114 -165
299 -432 153 -221 198 -286 223 -325 14 -21 57 -82 95 -136 113 -156 118 -164
190 -269 127 -187 175 -247 175 -219 0 3 -23 38 -52 78 -47 64 -98 137 -204
291 -19 28 -55 77 -80 110 -25 33 -92 130 -149 215 -58 85 -119 175 -137 200
-17 25 -83 122 -146 215 -63 94 -118 172 -122 175 -15 11 -130 192 -130 205 0
7 9 15 20 18 20 5 36 -12 94 -103 16 -25 55 -79 86 -120 31 -41 94 -130 141
-198 46 -67 102 -149 124 -181 22 -32 75 -109 118 -172 74 -108 176 -251 249
-349 18 -25 53 -75 78 -111 121 -179 190 -267 190 -244 0 4 -35 55 -77 113
-84 115 -110 151 -179 252 -24 36 -65 92 -89 125 -25 33 -69 96 -99 140 -30
44 -95 139 -145 210 -50 72 -136 195 -190 275 -55 80 -134 192 -175 250 -70
96 -91 140 -67 140 6 0 17 -10 25 -22 9 -12 19 -19 23 -15 3 4 1 13 -5 19 -14
14 -16 48 -3 48 6 0 31 -30 57 -67 26 -38 73 -102 103 -143 31 -41 94 -129
141 -197 265 -382 498 -711 530 -750 5 -7 36 -49 68 -95 124 -177 165 -228
182 -228 9 0 37 13 61 30 24 16 47 30 52 30 11 0 142 95 212 154 245 204 425
476 504 762 44 159 55 253 48 449 -4 149 -9 185 -37 289 -81 306 -224 550
-465 792 -149 151 -266 239 -470 356 -275 157 -562 251 -947 308 -89 14 -431
14 -543 1 -178 -21 -297 -45 -435 -88 -275 -85 -501 -202 -695 -360 -304 -248
-489 -541 -561 -890 -22 -106 -27 -157 -28 -298 0 -95 5 -205 12 -249 13 -86
10 -107 -11 -57 -7 17 -15 29 -18 27 -2 -2 -4 22 -4 55 0 33 -4 58 -10 58 -17
0 -23 41 -24 156 -1 286 77 569 223 805 103 167 229 310 375 429 125 100 142
112 267 182 373 208 732 299 1176 299 851 -1 1635 -413 2025 -1066 94 -156
154 -301 189 -454 91 -390 37 -752 -161 -1099 -86 -150 -148 -230 -258 -337
-148 -144 -252 -225 -389 -303 -61 -34 -63 -37 -49 -60 7 -11 21 -7 72 22 179
100 358 247 489 402 171 201 275 405 350 680 13 50 19 61 19 39 2 -82 -115
-376 -212 -535 -87 -141 -265 -338 -394 -434 -43 -32 -94 -70 -113 -85 -19
-15 -68 -46 -107 -69 -64 -38 -89 -61 -65 -61 17 0 215 132 302 201 335 267
570 660 625 1045 27 187 14 461 -28 624 -80 303 -238 582 -468 824 -129 136
-349 314 -469 378 -25 14 -63 35 -85 48 -124 72 -321 157 -465 200 -150 45
-166 49 -225 60 -33 6 -85 18 -115 25 -87 22 -461 48 -578 41 -337 -20 -602
-79 -870 -193 -192 -82 -331 -164 -489 -289 -102 -82 -244 -221 -307 -303
-155 -201 -275 -465 -322 -706 -19 -98 -25 -407 -11 -525 5 -45 4 -60 -3 -50
-8 13 -11 13 -19 1 -11 -17 -29 86 -39 224 -14 195 36 503 107 670 114 265
254 462 471 660 230 210 519 365 890 479 202 62 581 104 830 92 402 -18 855
-147 1181 -336 397 -230 657 -486 872 -856 26 -44 47 -84 47 -88 0 -4 16 -44
36 -89 44 -100 99 -297 120 -432 13 -76 15 -138 11 -260 -10 -271 -51 -437
-167 -670 -173 -349 -385 -569 -780 -813 -48 -30 -2 -22 49 8 439 258 762 671
869 1110 38 156 43 194 49 345 10 265 -31 475 -144 745 -144 344 -426 674
-773 904 -356 237 -715 368 -1190 436 -87 12 -463 16 -565 5 -61 -6 -204 -29
-345 -56 -175 -32 -459 -144 -665 -262 -278 -158 -546 -419 -692 -672 -121
-211 -168 -337 -214 -570 -18 -89 -22 -146 -22 -300 0 -133 -2 -182 -9 -165
-6 14 -10 102 -10 195 -1 198 19 333 77 510 42 130 135 324 199 415 25 36 61
88 79 115 34 51 193 218 258 271 104 85 190 149 229 170 19 10 44 26 55 35 61
51 401 204 540 244 33 9 80 23 105 30 187 54 447 87 668 87 42 0 72 4 72 10 0
21 -381 -4 -555 -36 -139 -26 -167 -33 -290 -71 -298 -92 -543 -219 -770 -399
-271 -215 -459 -466 -588 -787 -99 -246 -132 -563 -87 -853 20 -132 24 -163
15 -155 -8 9 -36 123 -50 209 -17 101 -19 336 -4 429 45 269 120 480 243 678
196 318 473 566 836 750 269 137 526 215 845 257 140 19 519 19 675 1z m25
-190 c204 -30 392 -82 645 -177 167 -63 432 -220 600 -355 122 -99 326 -316
395 -421 218 -332 315 -631 314 -967 0 -79 -6 -168 -14 -205 l-14 -65 7 95
c10 130 5 323 -8 395 -35 183 -66 289 -122 413 -15 35 -28 68 -28 72 0 11 -97
171 -160 265 -113 167 -326 373 -535 515 -43 29 -93 58 -270 160 -17 9 -77 37
-135 62 -228 99 -521 175 -770 199 -515 50 -992 -36 -1406 -255 -347 -184
-628 -464 -793 -791 -22 -44 -40 -74 -41 -67 0 7 18 49 40 92 262 526 829 911
1510 1025 218 37 571 41 785 10z m-2372 -1258 c-38 -116 -54 -137 -28 -39 16
65 53 157 59 151 2 -2 -12 -53 -31 -112z m-46 -154 c-3 -10 -5 -4 -5 12 0 17
2 24 5 18 2 -7 2 -21 0 -30z m-11 -79 c-3 -9 -6 -22 -6 -30 0 -9 -4 -13 -9
-10 -11 7 -2 56 11 56 6 0 7 -7 4 -16z m-11 -63 c3 -5 1 -12 -5 -16 -5 -3 -10
1 -10 9 0 18 6 21 15 7z m-5 -65 c0 -14 -4 -28 -10 -31 -6 -4 -10 7 -10 24 0
17 5 31 10 31 6 0 10 -11 10 -24z m-13 -88 c-3 -7 -5 -2 -5 12 0 14 2 19 5 13
2 -7 2 -19 0 -25z m0 -50 c-3 -8 -6 -5 -6 6 -1 11 2 17 5 13 3 -3 4 -12 1 -19z
m82 -205 c0 -25 -1 -25 -8 -8 -5 11 -7 23 -4 28 8 14 13 7 12 -20z m-169 -47
c-7 -7 -10 4 -9 30 1 39 1 39 10 9 5 -18 5 -33 -1 -39z m90 -62 c0 -8 -4 -12
-10 -9 -5 3 -10 10 -10 16 0 5 5 9 10 9 6 0 10 -7 10 -16z m1380 -45 c0 -6 -4
-7 -10 -4 -5 3 -10 11 -10 16 0 6 5 7 10 4 6 -3 10 -11 10 -16z m243 -349 c-6
-6 -33 30 -33 44 0 6 9 0 20 -14 10 -14 16 -27 13 -30z m71 -86 c5 -14 4 -15
-9 -4 -17 14 -19 20 -6 20 5 0 12 -7 15 -16z m100 -135 c43 -60 77 -112 74
-114 -4 -4 -29 30 -140 186 -15 22 -24 39 -20 39 4 0 42 -50 86 -111z m1818
-2561 c-7 -7 -12 -8 -12 -2 0 14 12 26 19 19 2 -3 -1 -11 -7 -17z"/>
<path d="M6055 9764 c144 -11 295 -27 325 -35 19 -6 60 -14 90 -19 30 -5 65
-11 78 -14 12 -4 32 -8 44 -11 45 -10 206 -58 268 -80 201 -72 387 -164 537
-266 40 -27 75 -49 78 -49 15 0 203 -159 287 -242 135 -134 187 -193 249 -283
67 -98 149 -230 149 -240 0 -5 11 -23 25 -41 14 -18 25 -39 25 -46 0 -8 12
-38 26 -68 77 -161 134 -422 139 -645 10 -391 -109 -743 -366 -1088 -54 -72
-250 -277 -265 -277 -6 0 -23 -14 -40 -31 -16 -17 -54 -47 -84 -67 -30 -19
-58 -40 -61 -45 -7 -9 -33 -26 -84 -51 -43 -21 -81 -53 -73 -62 13 -12 181 99
337 222 87 69 263 253 316 329 202 294 294 525 336 840 16 123 6 370 -21 510
-121 632 -573 1178 -1245 1505 -168 82 -271 118 -540 190 -145 39 -373 71
-489 68 -45 -1 -63 -3 -41 -4z"/>
<path d="M2360 8835 c0 -4 11 -21 24 -38 32 -44 39 -67 21 -67 -8 0 -15 -5
-15 -11 0 -9 70 -96 209 -258 25 -30 66 -80 89 -110 24 -31 47 -58 51 -61 6
-5 194 -231 331 -399 63 -77 144 -175 200 -241 21 -25 70 -85 109 -133 39 -48
97 -118 128 -155 32 -38 74 -88 93 -112 19 -24 62 -76 95 -114 33 -39 83 -98
110 -133 28 -34 113 -137 190 -230 77 -93 150 -181 163 -197 12 -16 25 -26 28
-23 9 9 -67 105 -343 433 -54 64 -111 133 -128 154 -16 20 -57 70 -90 110 -33
40 -73 89 -90 110 -16 20 -100 121 -185 224 -85 103 -177 215 -205 250 -27 34
-131 160 -230 278 -99 119 -193 233 -210 254 -16 21 -48 59 -70 84 -22 25 -53
63 -70 84 -16 22 -47 59 -67 83 -21 24 -38 46 -38 48 0 16 36 -20 102 -103 43
-53 117 -143 165 -198 48 -56 115 -134 148 -174 33 -40 81 -98 107 -129 112
-134 359 -432 422 -511 69 -86 113 -138 145 -175 23 -27 491 -592 521 -631 84
-105 154 -183 160 -179 4 2 7 15 6 29 -1 23 -78 121 -326 417 -36 42 -87 105
-115 139 -61 75 -168 203 -175 210 -3 3 -24 28 -45 55 -22 28 -105 128 -185
224 -80 95 -154 185 -165 200 -17 23 -197 241 -230 277 -5 6 -46 55 -90 109
-44 54 -109 132 -145 174 -36 42 -119 143 -185 223 -66 81 -127 147 -136 147
-10 1 -31 17 -48 36 -17 20 -31 33 -31 30z m84 -131 c4 -10 1 -14 -6 -12 -15
5 -23 28 -10 28 5 0 13 -7 16 -16z"/>
<path d="M2321 8677 c7 -12 21 -32 33 -43 12 -12 53 -61 91 -108 39 -48 109
-133 156 -189 47 -56 125 -151 174 -212 48 -60 102 -126 119 -145 17 -20 47
-56 67 -80 21 -25 76 -92 123 -150 47 -58 103 -125 124 -149 20 -25 68 -83
106 -130 37 -47 99 -121 136 -166 197 -235 331 -396 385 -464 44 -56 190 -233
355 -430 80 -95 155 -187 167 -204 12 -17 26 -33 30 -36 5 -3 35 -39 67 -80
32 -40 140 -171 240 -291 100 -120 194 -234 209 -253 94 -119 290 -347 298
-347 13 0 -3 23 -75 108 -102 122 -231 277 -266 321 -19 24 -69 85 -111 135
-112 133 -286 343 -349 421 -30 37 -95 116 -145 175 -49 58 -135 162 -190 229
-55 68 -147 179 -205 249 -58 69 -125 151 -150 181 -65 79 -71 87 -142 172
-35 42 -99 120 -143 174 -150 183 -254 310 -284 345 -53 63 -135 162 -181 219
-24 31 -82 101 -127 156 -46 55 -104 125 -128 155 -25 30 -82 100 -127 156
-46 55 -118 144 -161 196 -76 94 -122 134 -96 85z"/>
<path d="M2296 8641 c-3 -4 2 -17 12 -27 9 -10 29 -35 44 -54 15 -19 55 -69
88 -110 34 -41 80 -97 102 -125 22 -27 63 -76 92 -109 28 -32 58 -68 66 -80 8
-12 53 -69 100 -125 119 -145 195 -238 265 -323 33 -40 123 -149 200 -243 78
-93 212 -258 300 -365 88 -107 166 -201 175 -210 13 -13 53 -61 107 -130 20
-24 227 -276 313 -380 44 -52 105 -126 137 -165 32 -38 68 -81 80 -95 12 -14
38 -45 58 -70 49 -60 92 -112 156 -189 30 -35 65 -78 79 -95 26 -34 288 -350
379 -458 31 -37 59 -68 64 -68 10 0 9 18 -2 25 -11 6 -127 144 -216 255 -32
41 -75 93 -95 116 -19 22 -48 56 -64 75 -15 18 -94 112 -175 207 -80 96 -153
184 -161 197 -9 13 -43 54 -77 91 -33 38 -94 110 -134 160 -135 168 -187 231
-201 245 -8 8 -32 37 -53 64 -22 28 -85 104 -140 170 -54 66 -132 161 -173
210 -109 133 -233 284 -267 324 -17 20 -46 56 -65 81 -31 41 -96 120 -184 225
-19 22 -50 60 -70 85 -19 25 -47 59 -61 75 -15 17 -62 75 -106 130 -44 55 -90
111 -102 124 -21 22 -146 181 -352 444 -88 113 -109 134 -119 118z"/>
<path d="M3811 8204 c0 -11 3 -14 6 -6 3 7 2 16 -1 19 -3 4 -6 -2 -5 -13z"/>
<path d="M4910 7783 c0 -6 8 -17 18 -24 16 -13 16 -13 2 6 -8 11 -16 22 -17
24 -2 2 -3 0 -3 -6z"/>
<path d="M6197 7694 c-5 -6 28 -61 44 -74 10 -7 100 -129 124 -166 19 -30 63
-93 168 -239 24 -33 78 -112 122 -175 119 -174 119 -174 133 -183 6 -4 12 -13
12 -18 0 -6 15 -29 34 -52 32 -40 61 -80 150 -210 21 -32 44 -61 49 -64 19
-12 -30 62 -184 273 -64 89 -124 174 -133 190 -9 16 -41 63 -71 104 -30 41
-85 119 -122 174 -37 54 -81 118 -98 141 -16 24 -48 69 -70 102 -37 55 -129
179 -144 196 -4 4 -10 4 -14 1z"/>
<path d="M4991 7670 c14 -31 19 -36 19 -24 0 6 -7 19 -16 30 -14 18 -14 18 -3
-6z"/>
<path d="M3802 7620 c0 -14 2 -19 5 -12 2 6 2 18 0 25 -3 6 -5 1 -5 -13z"/>
<path d="M4299 6491 c30 -28 56 -49 59 -47 5 5 -74 78 -97 89 -9 4 8 -15 38
-42z"/>
<path d="M7050 6485 c0 -11 122 -170 133 -174 7 -2 0 11 -14 30 -14 19 -45 60
-68 92 -41 54 -51 64 -51 52z"/>
<path d="M4270 6440 c19 -25 61 -76 93 -115 32 -38 66 -79 75 -90 9 -11 40
-47 67 -80 28 -33 62 -74 75 -92 44 -55 143 -176 187 -228 68 -80 212 -255
293 -356 41 -51 91 -112 111 -134 20 -22 55 -65 78 -95 42 -53 68 -76 77 -67
2 2 -33 49 -78 103 -46 55 -144 174 -218 264 -74 90 -207 250 -295 356 -88
106 -180 218 -205 249 -25 31 -52 64 -60 74 -127 155 -177 211 -209 236 -22
16 -20 12 9 -25z"/>
<path d="M4380 6415 c7 -8 17 -15 22 -15 6 0 5 7 -2 15 -7 8 -17 15 -22 15 -6
0 -5 -7 2 -15z"/>
<path d="M4500 6395 c7 -8 42 -35 79 -60 36 -25 92 -63 124 -85 33 -22 109
-66 170 -98 323 -166 567 -243 962 -301 113 -16 381 -25 389 -12 5 8 -21 11
-86 11 -357 2 -763 89 -1077 230 -191 86 -296 146 -478 273 -83 58 -106 69
-83 42z"/>
<path d="M4436 6308 c5 -7 62 -80 128 -161 67 -81 132 -162 146 -180 14 -18
59 -73 100 -122 41 -49 82 -99 92 -110 9 -11 88 -106 175 -212 87 -105 179
-218 204 -250 76 -94 96 -113 124 -113 14 0 25 3 25 7 0 3 -26 36 -58 72 -32
36 -73 86 -92 111 -19 25 -73 90 -120 146 -47 55 -101 120 -120 144 -74 92
-226 276 -240 290 -8 9 -26 30 -40 48 -96 127 -217 261 -266 298 -63 47 -69
51 -58 32z"/>
<path d="M4625 6241 c26 -43 375 -223 563 -290 168 -60 351 -107 527 -135 35
-6 38 -5 22 7 -9 8 -43 17 -75 21 -70 7 -276 53 -317 70 -16 7 -68 25 -115 40
-156 51 -339 135 -495 229 -55 33 -104 62 -109 65 -5 3 -6 -1 -1 -7z"/>
<path d="M7237 6224 c3 -7 9 -14 14 -14 14 0 10 17 -5 23 -10 4 -13 1 -9 -9z"/>
<path d="M7182 6198 c2 -6 10 -14 16 -16 7 -2 10 2 6 12 -7 18 -28 22 -22 4z"/>
<path d="M7100 6171 c0 -5 7 -14 15 -21 16 -14 18 -10 9 14 -6 17 -24 22 -24
7z"/>
<path d="M7047 6159 c-14 -8 -16 -14 -6 -25 22 -27 55 -12 43 20 -7 19 -12 19
-37 5z"/>
<path d="M6915 6113 c-63 -23 -232 -64 -324 -79 -46 -7 -86 -16 -89 -19 -3 -2
1 -12 8 -20 11 -13 24 -15 64 -10 67 9 296 63 318 75 10 6 24 10 32 10 8 0 26
4 41 10 22 8 24 13 15 30 -12 23 -11 23 -65 3z"/>
<path d="M4730 6114 c0 -5 55 -73 245 -304 99 -120 216 -263 365 -444 192
-234 189 -231 267 -244 82 -13 370 -68 433 -82 25 -6 86 -17 135 -25 50 -8
144 -26 210 -39 66 -14 185 -37 265 -51 80 -14 161 -30 181 -35 42 -11 79 -13
79 -3 0 3 -12 22 -27 42 -15 20 -65 90 -110 157 -45 67 -104 151 -130 187 -26
35 -93 131 -148 212 -55 81 -119 173 -142 204 l-42 58 -198 0 c-344 1 -732 79
-1048 210 -33 14 -122 56 -197 94 -76 38 -138 66 -138 63z"/>
<path d="M7075 6100 c-3 -5 3 -10 14 -10 12 0 21 5 21 10 0 6 -6 10 -14 10 -8
0 -18 -4 -21 -10z"/>
<path d="M6925 6051 c-52 -19 -229 -63 -329 -82 -32 -6 -54 -14 -50 -19 21
-19 464 88 464 112 0 12 -30 8 -85 -11z"/>
<path d="M7125 6039 c-4 -6 -5 -12 -2 -15 7 -7 37 7 37 17 0 13 -27 11 -35 -2z"/>
<path d="M7389 6024 c6 -11 23 -36 38 -56 16 -20 71 -98 123 -172 52 -74 96
-133 98 -131 7 7 -239 359 -260 371 -6 4 -6 0 1 -12z"/>
<path d="M6380 5998 c0 -18 27 -44 37 -34 4 4 -3 16 -15 29 -18 17 -22 18 -22
5z"/>
<path d="M6440 6002 c0 -5 7 -15 15 -22 8 -7 15 -8 15 -2 0 5 -7 15 -15 22 -8
7 -15 8 -15 2z"/>
<path d="M6940 5974 c-58 -19 -145 -43 -195 -54 -157 -36 -168 -40 -100 -35
89 6 374 82 399 106 20 19 -3 15 -104 -17z"/>
<path d="M7155 5999 c-10 -14 -1 -21 19 -13 9 3 13 10 10 15 -7 12 -21 11 -29
-2z"/>
<path d="M7354 5963 c20 -27 75 -103 123 -171 49 -68 109 -152 136 -187 95
-127 299 -432 330 -492 17 -32 37 -51 37 -35 0 5 -14 31 -31 58 -18 27 -46 72
-64 99 -78 124 -147 223 -250 365 -30 41 -82 116 -116 165 -56 81 -97 137
-159 218 -12 15 -26 27 -32 27 -5 0 6 -21 26 -47z"/>
<path d="M6222 5983 c2 -11 14 -19 31 -21 29 -4 35 6 15 26 -19 19 -50 15 -46
-5z"/>
<path d="M6294 5984 c3 -9 6 -18 6 -20 0 -2 7 -4 15 -4 13 0 14 4 5 20 -13 24
-35 27 -26 4z"/>
<path d="M7240 5976 c0 -3 28 -42 63 -88 55 -72 124 -168 204 -282 12 -17 36
-49 52 -71 52 -70 256 -376 320 -480 33 -55 61 -91 60 -80 0 11 -18 47 -39 80
-22 33 -49 76 -60 95 -64 110 -135 216 -236 348 -27 37 -85 119 -129 182 -143
210 -235 325 -235 296z"/>
<path d="M7000 5941 c-25 -9 -92 -30 -150 -45 -58 -15 -113 -32 -122 -37 -10
-5 -36 -9 -57 -9 -22 0 -43 -4 -46 -10 -18 -29 117 0 422 91 18 5 35 14 38 19
9 15 -35 10 -85 -9z"/>
<path d="M6480 5940 c0 -5 5 -10 10 -10 6 0 10 5 10 10 0 6 -4 10 -10 10 -5 0
-10 -4 -10 -10z"/>
<path d="M6330 5930 c0 -5 5 -10 11 -10 5 0 7 5 4 10 -3 6 -8 10 -11 10 -2 0
-4 -4 -4 -10z"/>
<path d="M6265 5920 c3 -5 12 -10 20 -10 8 0 17 5 20 10 4 6 -5 10 -20 10 -15
0 -24 -4 -20 -10z"/>
<path d="M6315 5850 c-4 -6 5 -10 20 -10 15 0 24 4 20 10 -3 6 -12 10 -20 10
-8 0 -17 -4 -20 -10z"/>
<path d="M6385 5850 c3 -5 8 -10 11 -10 2 0 4 5 4 10 0 6 -5 10 -11 10 -5 0
-7 -4 -4 -10z"/>
<path d="M1476 5801 c37 -27 84 -48 84 -38 0 8 -99 67 -112 67 -7 0 6 -13 28
-29z"/>
<path d="M5793 5813 c9 -14 76 -21 272 -29 98 -3 180 -2 194 3 17 7 -42 12
-195 16 -120 4 -232 10 -248 14 -18 4 -27 2 -23 -4z"/>
<path d="M6345 5800 c-4 -6 7 -10 25 -10 18 0 29 4 25 10 -3 6 -15 10 -25 10
-10 0 -22 -4 -25 -10z"/>
<path d="M1621 5781 c32 -24 70 -44 75 -38 6 6 -72 57 -87 57 -6 0 -1 -8 12
-19z"/>
<path d="M6610 5774 c0 -6 25 -46 55 -90 30 -43 78 -113 106 -154 28 -41 54
-77 57 -80 4 -3 16 -18 27 -34 11 -16 29 -41 40 -56 11 -15 42 -60 69 -101 27
-40 81 -117 120 -170 60 -82 145 -204 193 -276 6 -10 14 -15 18 -11 6 6 -50
91 -153 234 -20 28 -88 124 -150 214 -63 89 -129 183 -149 209 -19 25 -75 105
-124 176 -96 139 -109 155 -109 139z"/>
<path d="M1385 5760 c3 -5 14 -10 23 -10 15 0 15 2 2 10 -20 13 -33 13 -25 0z"/>
<path d="M1760 5762 c0 -5 17 -18 38 -30 40 -22 81 -32 357 -82 94 -17 216
-40 271 -51 56 -11 128 -24 160 -29 33 -5 111 -19 174 -31 123 -22 159 -29
425 -78 94 -17 217 -40 275 -52 168 -32 249 -47 345 -64 50 -9 122 -23 160
-30 39 -7 97 -18 130 -24 33 -6 155 -29 270 -51 116 -22 235 -44 265 -50 93
-16 381 -71 450 -84 36 -7 67 -12 69 -10 1 1 -4 13 -13 26 -18 25 -62 38 -211
62 -49 8 -126 22 -170 30 -44 8 -192 35 -330 60 -137 25 -270 50 -295 56 -25
6 -121 25 -215 42 -93 16 -190 34 -215 38 -110 22 -332 62 -405 75 -44 7 -102
19 -130 25 -27 6 -102 20 -165 31 -230 40 -276 48 -325 59 -27 5 -99 19 -160
30 -60 11 -157 29 -215 40 -58 10 -143 26 -190 35 -47 8 -130 24 -185 34 -152
29 -165 31 -165 23z"/>
<path d="M6586 5703 c26 -38 77 -111 113 -163 35 -52 89 -128 119 -169 31 -41
71 -97 90 -125 20 -28 51 -74 71 -102 20 -28 79 -112 131 -187 87 -125 110
-152 110 -129 0 5 -55 86 -122 180 -68 94 -148 207 -178 252 -30 45 -73 105
-95 134 -22 30 -89 126 -150 214 -60 89 -116 161 -123 162 -7 0 8 -30 34 -67z"/>
<path d="M6392 5751 c-10 -6 -8 -14 11 -37 13 -16 58 -79 99 -141 99 -145 100
-147 205 -293 100 -140 108 -152 162 -232 97 -143 143 -198 167 -198 13 0 24
2 24 5 0 5 -78 115 -100 142 -8 10 -111 159 -150 217 -8 13 -27 40 -43 62 -68
96 -269 384 -302 432 -36 52 -48 59 -73 43z"/>
<path d="M6460 5755 c0 -6 141 -213 232 -342 23 -33 94 -135 157 -225 156
-222 255 -357 264 -357 17 -2 3 21 -81 135 -48 65 -108 151 -134 189 -26 39
-70 102 -97 140 -28 39 -72 101 -98 138 -27 38 -67 97 -91 130 -24 34 -63 92
-88 130 -39 58 -64 81 -64 62z"/>
<path d="M1630 5710 c8 -5 20 -10 25 -10 6 0 3 5 -5 10 -8 5 -19 10 -25 10 -5
0 -3 -5 5 -10z"/>
<path d="M1780 5680 c19 -13 30 -13 30 0 0 6 -10 10 -22 10 -19 0 -20 -2 -8
-10z"/>
<path d="M1390 5672 c0 -6 23 -15 50 -21 61 -13 60 -13 60 -2 0 5 -18 11 -39
15 -22 3 -46 9 -55 12 -9 3 -16 2 -16 -4z"/>
<path d="M1920 5662 c0 -13 17 -19 76 -27 27 -4 90 -15 139 -25 134 -28 145
-30 205 -40 114 -18 296 -51 313 -56 10 -3 53 -12 95 -19 130 -23 243 -43 332
-61 47 -9 105 -20 130 -24 25 -4 83 -15 130 -24 47 -9 112 -21 145 -27 33 -6
92 -17 130 -25 82 -16 241 -46 375 -69 95 -16 218 -39 380 -71 179 -35 237
-45 300 -54 36 -5 81 -14 100 -20 19 -6 79 -17 132 -26 53 -8 139 -24 190 -34
87 -17 110 -18 95 -4 -6 6 -25 10 -187 40 -142 26 -281 52 -370 69 -135 25
-171 32 -435 80 -137 25 -297 55 -355 66 -58 11 -127 24 -155 29 -84 15 -425
79 -505 94 -41 8 -113 22 -160 30 -47 9 -170 32 -275 51 -170 31 -244 45 -325
58 -14 3 -83 16 -155 30 -71 14 -173 33 -225 42 -52 10 -101 20 -107 22 -7 3
-13 1 -13 -5z"/>
<path d="M7696 5598 c21 -29 47 -66 59 -83 11 -16 22 -32 25 -35 3 -3 27 -38
54 -78 27 -39 51 -70 54 -68 7 7 -212 316 -224 316 -3 0 11 -24 32 -52z"/>
<path d="M1590 5630 c20 -13 33 -13 25 0 -3 6 -14 10 -23 10 -15 0 -15 -2 -2
-10z"/>
<path d="M1810 5590 c0 -5 7 -10 16 -10 8 0 12 5 9 10 -3 6 -10 10 -16 10 -5
0 -9 -4 -9 -10z"/>
<path d="M1565 5570 c17 -4 41 -8 55 -8 l25 0 -25 8 c-14 4 -38 8 -55 8 l-30
0 30 -8z"/>
<path d="M1970 5560 c0 -5 7 -10 16 -10 8 0 12 5 9 10 -3 6 -10 10 -16 10 -5
0 -9 -4 -9 -10z"/>
<path d="M1728 5543 c7 -3 16 -2 19 1 4 3 -2 6 -13 5 -11 0 -14 -3 -6 -6z"/>
<path d="M2123 5534 c10 -10 173 -44 407 -84 58 -10 168 -30 245 -45 236 -45
433 -82 585 -110 80 -15 228 -42 330 -61 267 -50 339 -63 390 -70 25 -3 70
-12 100 -19 30 -8 107 -23 170 -35 63 -11 160 -29 215 -40 106 -20 188 -35
405 -75 74 -14 155 -29 180 -34 92 -18 131 -21 126 -12 -4 5 -25 12 -49 16
-23 3 -82 15 -132 25 -49 10 -157 30 -240 44 -187 32 -443 80 -600 111 -66 14
-172 34 -235 45 -63 11 -149 26 -190 34 -506 94 -708 132 -845 157 -33 6 -91
17 -130 24 -86 17 -319 61 -400 76 -33 6 -78 14 -100 19 -56 13 -209 40 -225
40 -7 0 -11 -3 -7 -6z"/>
<path d="M1654 5502 c3 -5 33 -26 68 -47 35 -21 99 -62 143 -90 44 -28 150
-96 235 -150 179 -114 291 -185 445 -284 61 -39 164 -105 230 -145 66 -41 140
-89 165 -106 25 -17 92 -61 150 -97 58 -36 134 -85 170 -108 36 -23 92 -59
125 -80 33 -21 85 -54 115 -74 30 -20 60 -38 65 -40 6 -2 55 -33 110 -69 132
-86 157 -101 245 -157 41 -26 105 -67 141 -91 36 -24 68 -44 71 -44 3 0 48
-28 100 -62 51 -35 118 -78 148 -97 98 -61 229 -144 343 -218 61 -40 113 -73
115 -73 4 0 56 -33 272 -175 69 -45 141 -90 160 -100 19 -9 51 -29 70 -44 19
-14 60 -42 92 -61 114 -70 295 -184 378 -238 47 -31 101 -65 120 -77 19 -12
87 -56 151 -97 63 -42 129 -83 145 -92 16 -9 62 -38 102 -64 40 -26 118 -76
175 -111 56 -35 113 -71 126 -80 13 -9 34 -23 46 -31 12 -8 44 -28 71 -44 27
-17 105 -66 174 -111 69 -45 171 -110 228 -146 56 -35 128 -81 160 -101 31
-20 104 -66 162 -103 242 -153 358 -226 400 -254 25 -16 79 -51 122 -77 103
-66 197 -126 296 -190 45 -30 82 -50 82 -46 0 5 -19 30 -42 57 -41 45 -108 92
-400 278 -68 43 -238 151 -378 240 -140 89 -318 202 -395 251 -77 49 -155 98
-173 110 -18 11 -72 46 -120 76 -48 30 -97 61 -107 68 -11 7 -40 25 -64 40
-24 15 -86 55 -138 90 -53 34 -97 62 -99 62 -4 0 -87 53 -330 210 -81 52 -166
106 -190 120 -97 57 -140 84 -149 95 -5 6 -44 31 -85 55 -41 24 -96 59 -122
77 -26 18 -50 33 -53 33 -2 0 -24 13 -47 29 -40 26 -79 51 -168 106 -19 12
-80 51 -135 87 -99 64 -198 128 -286 184 -43 27 -102 65 -360 229 -60 39 -145
93 -189 120 -45 28 -143 91 -220 140 -77 50 -181 117 -232 149 -51 32 -122 78
-158 101 -36 23 -118 75 -183 116 -64 41 -143 91 -175 111 -31 20 -91 58 -132
83 -41 26 -138 87 -215 136 -77 49 -180 116 -229 147 -49 31 -132 84 -183 117
-51 33 -143 92 -203 130 -61 39 -173 109 -248 157 -75 48 -150 96 -167 106
-16 11 -70 45 -120 78 -85 56 -168 93 -208 94 -10 0 -16 -4 -13 -8z"/>
<path d="M1857 5455 c45 -32 275 -175 281 -175 3 0 13 -7 23 -16 16 -14 177
-117 539 -345 63 -40 160 -102 215 -138 55 -36 114 -73 132 -83 17 -9 64 -39
105 -66 40 -27 93 -61 118 -76 25 -15 56 -35 70 -45 25 -18 163 -106 201 -127
10 -6 27 -17 36 -25 10 -8 34 -23 53 -33 19 -11 66 -40 103 -65 38 -25 84 -55
102 -66 28 -17 132 -81 194 -120 40 -26 143 -92 216 -139 78 -51 157 -101 318
-202 42 -27 140 -89 217 -139 389 -251 484 -311 508 -324 29 -15 172 -107 237
-151 22 -15 99 -64 170 -107 146 -90 187 -116 346 -221 61 -39 115 -72 120
-72 5 0 9 -3 9 -7 0 -5 23 -21 51 -38 28 -16 86 -52 129 -80 44 -27 122 -77
175 -110 53 -33 142 -90 198 -126 56 -36 183 -117 282 -180 99 -63 208 -132
242 -154 34 -22 106 -67 159 -100 53 -33 131 -83 173 -110 42 -28 105 -69 140
-90 75 -47 78 -49 228 -145 171 -109 237 -148 242 -144 9 8 -24 34 -102 80
-45 26 -84 51 -87 54 -3 3 -54 37 -115 74 -132 82 -133 82 -312 199 -78 50
-157 101 -175 112 -18 11 -47 29 -65 40 -17 11 -53 33 -80 49 -26 16 -50 32
-53 36 -3 4 -16 13 -30 20 -14 7 -63 37 -110 68 -47 30 -114 74 -150 97 -36
23 -112 72 -170 107 -58 36 -142 90 -187 119 -46 30 -118 76 -160 103 -43 27
-127 80 -188 119 -60 39 -142 91 -182 116 -39 25 -116 74 -170 109 -126 81
-290 183 -428 268 -60 37 -157 99 -215 137 -134 89 -212 140 -328 213 -51 33
-112 71 -135 86 -23 15 -51 32 -62 38 -21 11 -41 23 -198 124 -50 33 -123 80
-162 105 -38 24 -99 63 -135 86 -36 23 -128 81 -205 129 -139 87 -285 181
-337 217 -15 11 -29 19 -32 19 -3 0 -58 34 -123 77 -65 42 -142 91 -170 110
-29 18 -77 48 -105 66 -82 53 -235 149 -286 181 -26 16 -85 54 -132 84 -47 31
-101 65 -120 77 -19 12 -80 51 -135 87 -55 36 -138 89 -185 118 -119 74 -252
159 -310 198 -27 17 -51 32 -54 32 -2 0 -31 18 -64 40 -33 22 -68 40 -78 40
-17 0 -16 -1 3 -15z"/>
<path d="M2305 5436 c28 -7 52 -11 54 -9 9 7 -6 11 -54 17 l-50 5 50 -13z"/>
<path d="M2095 5409 c38 -25 242 -157 286 -184 19 -11 47 -29 64 -40 16 -11
52 -33 78 -50 27 -16 88 -55 135 -86 48 -30 116 -73 152 -94 36 -21 74 -46 85
-55 17 -14 96 -64 353 -225 26 -16 111 -71 189 -122 78 -51 146 -93 151 -93 5
0 15 -7 22 -15 6 -7 37 -28 68 -46 31 -18 113 -68 182 -113 69 -45 135 -86
145 -93 19 -11 117 -74 439 -278 235 -150 267 -171 364 -231 52 -33 119 -75
150 -95 190 -122 235 -151 305 -195 43 -27 113 -71 156 -99 43 -27 98 -62 122
-77 204 -127 364 -229 619 -393 80 -51 179 -114 220 -141 41 -26 107 -67 145
-92 39 -25 86 -55 105 -67 19 -12 73 -47 120 -77 47 -30 121 -77 165 -103 44
-27 114 -71 156 -99 42 -28 113 -73 157 -101 78 -48 201 -126 377 -240 44 -28
105 -66 135 -85 30 -18 64 -41 75 -51 11 -9 36 -25 55 -35 19 -11 49 -28 65
-40 17 -12 41 -27 55 -34 23 -12 24 -12 10 4 -13 17 -126 96 -136 96 -3 0 -58
35 -122 77 -203 133 -364 236 -496 318 -36 22 -135 85 -220 140 -86 55 -184
118 -218 139 -35 22 -96 61 -136 88 -41 26 -75 48 -76 48 -2 0 -32 19 -68 43
-35 23 -97 62 -137 87 -90 56 -201 127 -306 195 -44 28 -109 69 -145 90 -36
21 -74 46 -85 55 -18 15 -217 141 -308 194 -33 20 -109 68 -252 161 -44 29
-206 132 -360 230 -154 98 -302 192 -330 210 -157 100 -252 160 -270 169 -11
6 -51 32 -90 57 -160 105 -246 159 -254 159 -4 0 -16 9 -26 20 -10 11 -22 20
-28 20 -5 0 -59 33 -121 73 -61 40 -156 101 -211 136 -55 34 -140 89 -190 121
-49 32 -124 79 -165 105 -82 50 -189 118 -350 222 -58 37 -116 75 -130 83 -61
37 -106 66 -300 191 -206 134 -380 239 -394 239 -6 0 3 -9 19 -21z"/>
<path d="M2390 5420 c8 -5 22 -10 30 -10 13 0 13 1 0 10 -8 5 -22 10 -30 10
-13 0 -13 -1 0 -10z"/>
<path d="M2490 5400 c8 -5 29 -9 45 -9 29 1 29 1 5 9 -14 4 -34 8 -45 9 -16 1
-17 -1 -5 -9z"/>
<path d="M2251 5382 c13 -11 47 -32 74 -48 28 -15 100 -60 160 -100 61 -39
121 -77 135 -84 24 -12 24 -11 8 5 -9 10 -32 27 -52 39 -20 11 -100 63 -179
114 -79 50 -150 92 -157 92 -7 0 -2 -8 11 -18z"/>
<path d="M2600 5380 c14 -4 36 -8 50 -8 23 -1 23 0 5 8 -11 5 -33 8 -50 8 -29
0 -29 0 -5 -8z"/>
<path d="M2490 5296 c63 -42 133 -86 155 -97 22 -12 49 -29 60 -38 11 -10 43
-31 70 -46 28 -16 120 -74 205 -130 130 -85 222 -143 345 -218 11 -6 70 -44
130 -83 61 -39 146 -93 190 -121 166 -104 312 -197 360 -228 77 -50 272 -174
366 -233 46 -29 122 -77 169 -107 47 -29 150 -95 230 -144 80 -50 207 -130
282 -178 131 -84 265 -169 437 -278 44 -27 99 -62 123 -77 178 -113 387 -245
458 -289 47 -29 133 -84 192 -123 59 -39 140 -91 180 -115 40 -25 123 -77 183
-116 61 -39 156 -100 212 -136 56 -35 165 -104 241 -154 77 -49 177 -112 221
-140 45 -27 130 -81 189 -120 201 -130 244 -156 248 -152 3 3 -26 40 -63 84
-37 44 -81 97 -98 118 -16 22 -59 73 -95 115 -66 78 -379 454 -489 590 -68 83
-234 284 -296 359 -94 113 -368 443 -460 555 -133 161 -135 163 -176 210 -19
23 -53 63 -75 91 -21 27 -119 146 -217 265 -99 118 -201 242 -228 275 -153
188 -147 182 -197 189 -26 4 -67 11 -92 16 -25 5 -108 21 -185 35 -77 14 -160
29 -185 34 -25 5 -72 14 -105 20 -33 6 -145 27 -250 46 -104 20 -239 45 -300
56 -60 11 -144 26 -185 34 -41 8 -127 24 -190 36 -63 11 -194 36 -290 54 -420
80 -561 107 -645 121 -154 26 -237 42 -335 63 -52 11 -120 23 -150 27 l-55 6
115 -76z"/>
<path d="M2693 5364 c8 -8 150 -34 156 -28 4 4 -3 6 -72 23 -52 12 -94 15 -84
5z"/>
<path d="M2926 5320 c12 -5 43 -11 70 -14 l49 -6 -55 15 c-61 16 -98 19 -64 5z"/>
<path d="M7900 5300 c6 -11 13 -20 16 -20 2 0 0 9 -6 20 -6 11 -13 20 -16 20
-2 0 0 -9 6 -20z"/>
<path d="M3053 5294 c8 -8 289 -55 302 -51 10 4 -22 11 -191 41 -98 17 -121
19 -111 10z"/>
<path d="M7942 5236 c6 -14 15 -26 20 -26 10 0 -7 36 -22 45 -6 4 -5 -5 2 -19z"/>
<path d="M3383 5233 c9 -2 23 -2 30 0 6 3 -1 5 -18 5 -16 0 -22 -2 -12 -5z"/>
<path d="M3450 5220 c14 -4 34 -8 45 -8 l20 -1 -20 9 c-11 5 -31 8 -45 8 l-25
0 25 -8z"/>
<path d="M3600 5194 c154 -36 322 -63 309 -50 -4 4 -46 13 -95 21 -49 8 -111
19 -139 25 -27 5 -70 12 -95 14 -35 4 -30 2 20 -10z"/>
<path d="M7970 5195 c0 -5 10 -21 21 -35 13 -17 17 -18 10 -5 -17 33 -31 51
-31 40z"/>
<path d="M2650 5137 c0 -3 26 -22 58 -43 31 -20 88 -57 125 -82 37 -24 71 -42
74 -39 3 3 -32 30 -78 60 -107 68 -179 110 -179 104z"/>
<path d="M3980 5121 c40 -13 127 -23 110 -12 -8 5 -42 12 -75 15 -38 4 -51 3
-35 -3z"/>
<path d="M5195 5110 c10 -11 23 -20 28 -20 6 0 2 9 -8 20 -10 11 -23 20 -28
20 -6 0 -2 -9 8 -20z"/>
<path d="M5270 5108 c0 -19 25 -41 40 -36 6 2 0 14 -14 27 -20 19 -26 21 -26
9z"/>
<path d="M4145 5089 c22 -4 49 -8 60 -7 16 0 15 2 -5 8 -14 4 -41 8 -60 8
l-35 0 40 -9z"/>
<path d="M5390 5082 c0 -13 23 -32 39 -32 11 0 10 4 -4 20 -19 21 -35 26 -35
12z"/>
<path d="M4241 5076 c3 -4 168 -36 462 -91 42 -8 85 -15 95 -14 25 2 -79 26
-183 43 -49 9 -147 27 -217 41 -122 24 -166 30 -157 21z"/>
<path d="M5462 5058 c15 -22 61 -41 72 -30 11 11 -38 52 -62 52 -23 0 -24 -1
-10 -22z"/>
<path d="M5620 5031 c5 -11 18 -22 27 -25 36 -11 383 -79 518 -101 44 -7 125
-23 180 -35 55 -12 130 -25 166 -30 37 -5 87 -14 110 -19 137 -31 370 -73 375
-68 3 3 1 14 -5 25 -11 20 -4 19 -286 71 -88 16 -232 43 -320 60 -88 17 -200
37 -250 46 -49 9 -121 22 -160 30 -147 31 -329 65 -347 65 -15 0 -17 -3 -8
-19z"/>
<path d="M5340 5020 c0 -5 5 -10 10 -10 6 0 10 5 10 10 0 6 -4 10 -10 10 -5 0
-10 -4 -10 -10z"/>
<path d="M5460 5000 c0 -5 5 -10 11 -10 5 0 7 5 4 10 -3 6 -8 10 -11 10 -2 0
-4 -4 -4 -10z"/>
<path d="M5525 4990 c-3 -5 0 -10 7 -10 7 0 24 -3 38 -6 17 -5 22 -3 15 4 -16
16 -53 24 -60 12z"/>
<path d="M2920 4966 c0 -6 163 -114 320 -211 92 -57 297 -188 383 -246 32 -22
62 -39 65 -39 4 0 34 -18 67 -40 33 -22 64 -40 69 -40 14 0 -58 52 -136 98
-40 23 -113 69 -163 102 -49 32 -125 80 -168 107 -43 26 -97 60 -120 76 -23
15 -55 35 -70 45 -15 9 -60 38 -100 63 -116 73 -147 91 -147 85z"/>
<path d="M4855 4960 c17 -4 39 -8 50 -9 16 -1 17 1 5 9 -8 5 -31 9 -50 9 l-35
-1 30 -8z"/>
<path d="M5690 4961 c0 -12 14 -16 125 -36 50 -9 185 -34 300 -56 196 -37 274
-51 435 -80 36 -6 74 -13 85 -16 11 -2 56 -10 100 -18 72 -12 175 -31 275 -51
24 -4 32 -3 25 4 -5 5 -62 19 -125 31 -578 109 -687 129 -785 146 -49 9 -121
22 -160 30 -38 7 -108 21 -155 30 -47 9 -93 18 -102 21 -10 3 -18 1 -18 -5z"/>
<path d="M4931 4946 c8 -9 180 -38 186 -32 3 2 -12 9 -33 14 -51 13 -161 26
-153 18z"/>
<path d="M5425 4920 c3 -5 11 -10 16 -10 6 0 7 5 4 10 -3 6 -11 10 -16 10 -6
0 -7 -4 -4 -10z"/>
<path d="M5148 4903 c6 -2 18 -2 25 0 6 3 1 5 -13 5 -14 0 -19 -2 -12 -5z"/>
<path d="M5205 4900 c3 -5 24 -11 48 -15 23 -3 51 -9 62 -12 11 -3 17 -2 13 2
-10 10 -129 34 -123 25z"/>
<path d="M5610 4890 c0 -9 25 -20 46 -20 9 0 13 4 10 9 -7 11 -56 21 -56 11z"/>
<path d="M5774 4851 c3 -4 29 -11 58 -15 29 -4 118 -20 198 -36 80 -16 213
-40 295 -55 83 -15 183 -33 224 -41 69 -13 93 -13 78 2 -3 3 -45 12 -94 19
-48 8 -140 24 -203 35 -111 21 -159 30 -272 49 -29 5 -102 18 -162 30 -124 24
-129 24 -122 12z"/>
<path d="M5688 4808 c5 -5 16 -8 23 -6 8 3 3 7 -10 11 -17 4 -21 3 -13 -5z"/>
<path d="M5460 4795 c0 -3 26 -38 58 -76 31 -39 68 -85 82 -103 14 -18 51 -62
81 -97 31 -35 87 -102 125 -149 38 -47 76 -94 85 -105 112 -134 152 -182 162
-195 7 -8 57 -69 112 -135 98 -118 155 -187 309 -375 43 -52 96 -115 117 -140
21 -25 109 -130 194 -235 86 -104 182 -221 215 -260 32 -38 107 -128 166 -200
635 -774 710 -862 722 -850 5 4 -51 75 -132 165 -42 47 -102 119 -146 175 -14
18 -61 75 -105 127 -44 52 -105 126 -135 163 -30 38 -78 94 -106 126 -29 31
-60 69 -70 85 -11 15 -33 44 -51 63 -28 32 -135 162 -226 275 -18 22 -46 56
-63 75 -18 20 -56 66 -85 103 -30 36 -88 105 -129 153 -41 48 -79 94 -85 104
-5 9 -22 30 -36 46 -15 17 -68 80 -118 140 -50 61 -100 119 -109 130 -10 11
-36 43 -57 70 -22 28 -65 80 -97 116 -32 37 -58 69 -58 71 0 2 -16 22 -35 44
-19 21 -86 102 -150 179 -64 77 -131 158 -150 180 -19 22 -62 74 -95 115 -170
211 -190 233 -190 215z"/>
<path d="M5540 4784 c0 -9 44 -63 343 -424 34 -41 69 -84 78 -95 9 -11 52 -63
95 -115 44 -52 90 -109 104 -126 14 -17 87 -105 162 -195 220 -264 289 -347
359 -433 37 -45 137 -166 224 -271 86 -104 201 -244 254 -310 109 -134 300
-364 364 -439 23 -27 64 -77 91 -110 58 -72 127 -155 176 -212 19 -22 42 -49
50 -60 144 -184 190 -234 190 -206 0 4 -68 88 -151 187 -180 215 -281 337
-413 499 -54 66 -112 137 -130 157 -17 19 -76 90 -131 158 -55 68 -142 173
-192 235 -51 61 -128 153 -170 205 -43 52 -94 112 -114 135 -20 23 -76 91
-125 151 -48 61 -135 166 -192 235 -58 69 -132 158 -166 199 -33 41 -81 97
-106 126 -25 28 -85 102 -135 164 -49 62 -98 122 -109 134 -21 25 -109 131
-158 192 -72 88 -190 225 -194 225 -2 0 -4 -3 -4 -6z"/>
<path d="M5868 4773 c6 -2 18 -2 25 0 6 3 1 5 -13 5 -14 0 -19 -2 -12 -5z"/>
<path d="M5922 4765 c4 -4 29 -11 55 -16 27 -4 61 -10 77 -15 19 -4 27 -3 23
3 -4 6 -26 13 -49 16 -24 4 -59 9 -78 13 -19 4 -32 3 -28 -1z"/>
<path d="M7079 4751 c12 -21 48 -37 59 -26 12 12 -15 40 -42 43 -25 3 -26 1
-17 -17z"/>
<path d="M5665 4751 c3 -6 14 -20 25 -33 10 -13 60 -72 110 -133 154 -187 292
-354 360 -435 36 -43 88 -107 117 -142 28 -35 72 -88 97 -118 26 -30 92 -111
148 -180 56 -69 127 -154 158 -190 31 -36 65 -77 76 -91 10 -15 64 -80 119
-146 55 -67 168 -203 250 -303 83 -101 166 -202 185 -224 19 -23 51 -61 70
-86 19 -24 49 -59 66 -79 29 -33 118 -141 315 -383 42 -51 94 -113 115 -137
22 -24 48 -56 59 -71 50 -68 279 -340 286 -340 19 0 6 22 -58 98 -70 80 -82
95 -168 202 -27 35 -79 97 -115 139 -36 42 -92 110 -125 151 -33 41 -87 107
-121 145 -33 39 -119 141 -190 228 -209 257 -280 343 -362 441 -42 51 -113
137 -157 191 -44 54 -116 140 -160 192 -44 52 -91 109 -105 126 -83 104 -359
438 -370 447 -3 3 -23 28 -45 55 -22 28 -55 68 -75 91 -19 22 -60 71 -90 109
-30 37 -92 113 -138 169 -46 56 -98 118 -115 140 -96 116 -149 176 -158 176
-6 0 -8 -4 -4 -9z"/>
<path d="M7160 4751 c0 -12 31 -43 37 -37 6 6 -20 46 -29 46 -5 0 -8 -4 -8 -9z"/>
<path d="M5747 4713 c15 -21 57 -72 93 -114 36 -41 90 -106 120 -144 30 -38
69 -85 86 -104 17 -20 95 -115 173 -211 157 -192 205 -250 236 -284 29 -33 56
-66 87 -108 15 -20 36 -44 45 -54 10 -9 25 -27 33 -39 8 -12 56 -71 107 -131
91 -108 176 -211 243 -294 19 -24 105 -127 190 -230 85 -102 191 -230 235
-285 88 -108 177 -216 261 -315 30 -36 89 -108 132 -161 65 -81 184 -227 347
-424 18 -22 49 -60 69 -85 20 -25 51 -62 69 -84 31 -38 127 -110 135 -101 5 5
-167 218 -498 619 -69 83 -163 198 -210 255 -47 58 -92 112 -100 121 -9 8 -50
58 -91 110 -42 52 -116 143 -165 201 -49 58 -131 157 -183 220 -100 123 -199
241 -363 438 -56 68 -141 172 -188 230 -76 94 -140 171 -360 436 -32 39 -140
169 -239 290 -231 281 -235 285 -266 285 l-26 0 28 -37z"/>
<path d="M6121 4726 c2 -2 29 -6 59 -9 36 -4 46 -3 30 3 -25 8 -97 13 -89 6z"/>
<path d="M7280 4718 c0 -18 18 -34 28 -24 3 4 -2 14 -11 23 -16 16 -17 16 -17
1z"/>
<path d="M7355 4700 c10 -11 20 -18 23 -15 7 6 -18 35 -31 35 -5 0 -2 -9 8
-20z"/>
<path d="M6265 4700 c11 -5 31 -9 45 -9 23 0 23 1 5 9 -11 5 -31 9 -45 9 -23
0 -23 -1 -5 -9z"/>
<path d="M6646 4691 c7 -7 65 -18 339 -66 11 -2 40 -8 65 -14 42 -9 60 -8 48
4 -5 5 -38 11 -238 46 -30 5 -87 16 -127 24 -83 17 -101 19 -87 6z"/>
<path d="M7130 4685 c13 -16 50 -21 50 -6 0 5 -10 11 -22 15 -36 9 -41 7 -28
-9z"/>
<path d="M6385 4681 c6 -5 30 -12 55 -15 31 -4 37 -3 20 2 -53 18 -85 24 -75
13z"/>
<path d="M7215 4670 c3 -5 8 -10 11 -10 2 0 4 5 4 10 0 6 -5 10 -11 10 -5 0
-7 -4 -4 -10z"/>
<path d="M6506 4660 c5 -5 32 -12 59 -15 34 -3 42 -2 25 3 -47 16 -95 23 -84
12z"/>
<path d="M7320 4650 c0 -5 7 -10 16 -10 8 0 12 5 9 10 -3 6 -10 10 -16 10 -5
0 -9 -4 -9 -10z"/>
<path d="M7400 4640 c0 -5 5 -10 11 -10 5 0 7 5 4 10 -3 6 -8 10 -11 10 -2 0
-4 -4 -4 -10z"/>
<path d="M6628 4633 c6 -2 18 -2 25 0 6 3 1 5 -13 5 -14 0 -19 -2 -12 -5z"/>
<path d="M6705 4620 c11 -5 29 -9 40 -9 l20 0 -20 9 c-11 5 -29 9 -40 9 l-20
0 20 -9z"/>
<path d="M6808 4603 c7 -3 16 -2 19 1 4 3 -2 6 -13 5 -11 0 -14 -3 -6 -6z"/>
<path d="M6850 4600 c0 -6 7 -10 15 -10 8 0 15 2 15 4 0 2 -7 6 -15 10 -8 3
-15 1 -15 -4z"/>
<path d="M7195 4590 c3 -5 18 -10 33 -10 21 0 24 2 12 10 -20 13 -53 13 -45 0z"/>
<path d="M6925 4579 c134 -29 233 -44 223 -34 -8 8 -214 45 -243 44 -11 -1 -2
-5 20 -10z"/>
<path d="M7253 4523 c9 -2 23 -2 30 0 6 3 -1 5 -18 5 -16 0 -22 -2 -12 -5z"/>
<path d="M3857 4369 c7 -9 59 -44 115 -79 152 -94 303 -193 306 -202 2 -4 10
-8 17 -8 8 0 42 -19 77 -42 35 -24 73 -48 84 -55 23 -14 401 -253 481 -305 32
-20 81 -51 108 -67 59 -37 85 -53 99 -64 6 -4 47 -30 91 -57 44 -28 90 -57
103 -66 12 -10 49 -33 83 -53 69 -42 276 -172 332 -209 20 -14 40 -23 43 -20
5 5 -75 57 -302 198 -57 36 -184 116 -282 179 -203 131 -360 231 -450 287 -34
21 -98 63 -143 91 -44 29 -156 100 -248 157 -92 57 -220 138 -284 180 -64 42
-119 76 -123 76 -4 0 -15 6 -23 13 -30 25 -96 62 -84 46z"/>
<path d="M5905 3066 c55 -35 123 -78 150 -95 53 -33 309 -197 433 -276 41 -26
76 -45 78 -42 3 3 -12 15 -33 28 -21 12 -74 46 -118 74 -371 240 -385 249
-448 284 -31 18 -63 38 -70 44 -21 21 -66 47 -79 47 -7 0 32 -29 87 -64z"/>
<path d="M6580 2641 c0 -6 15 -18 33 -27 17 -10 43 -25 57 -34 50 -35 341
-220 346 -220 3 0 41 -25 84 -55 43 -30 82 -55 86 -55 4 0 22 -11 40 -25 18
-14 37 -25 42 -25 5 0 17 -9 27 -20 10 -11 23 -20 28 -20 6 0 25 -11 43 -25
18 -14 36 -25 41 -25 4 0 26 -14 47 -30 22 -17 46 -30 53 -30 7 0 13 -3 13 -7
0 -5 24 -21 53 -37 28 -16 54 -32 57 -35 7 -9 171 -116 198 -131 46 -23 33 -1
-15 26 -26 15 -64 40 -83 54 -19 15 -60 41 -90 59 -89 52 -164 99 -178 111 -6
6 -47 32 -90 58 -42 26 -91 57 -109 70 -17 12 -34 22 -37 22 -4 0 -39 22 -79
49 -107 72 -266 175 -312 201 -22 13 -83 51 -135 85 -123 80 -120 78 -120 66z"/>
<path d="M7990 1740 c14 -10 27 -16 30 -13 6 6 -30 33 -44 33 -6 0 0 -9 14
-20z"/>
<path d="M8110 1665 c0 -2 10 -10 23 -16 20 -11 21 -11 8 4 -13 16 -31 23 -31
12z"/>
<path d="M8106 1596 c8 -20 49 -45 42 -25 -2 7 -14 19 -26 27 -20 13 -22 13
-16 -2z"/>
<path d="M8332 1524 c10 -10 20 -15 24 -12 3 4 -5 12 -18 18 -22 12 -22 12 -6
-6z"/>
<path d="M8240 1512 c0 -5 12 -17 26 -27 17 -11 25 -13 22 -4 -5 16 -48 44
-48 31z"/>
<path d="M8420 1473 c0 -9 52 -42 85 -55 16 -6 14 -4 -5 12 -34 28 -80 52 -80
43z"/>
<path d="M8435 1388 c6 -16 114 -82 122 -75 2 3 -19 21 -49 39 -80 51 -78 50
-73 36z"/>
<path d="M8280 1381 c0 -12 72 -63 78 -56 6 5 -16 26 -50 48 -16 10 -28 13
-28 8z"/>
<path d="M8420 1291 c0 -14 50 -51 69 -51 12 0 10 6 -9 21 -38 30 -60 41 -60
30z"/>
</g>
</svg>
